
<svg xmlns="http://www.w3.org/2000/svg" viewBox="0 0 64 64" fill="none">
  <rect width="64" height="64" rx="14" fill="#1F6FEB"></rect>

  
  <circle cx="16" cy="11" r="1.4" fill="#FFFFFF" opacity="0.6"></circle>
  <circle cx="25" cy="10" r="1.8" fill="#FFFFFF" opacity="0.8"></circle>
  <circle cx="35" cy="9" r="2.2" fill="#FFFFFF"></circle>
  <circle cx="46" cy="8" r="3.2" fill="#FF7A00"></circle>

  
  <path d="M14 44V20a2 2 0 0 1 3.4-1.4L26 27.2a2 2 0 0 0 2.83 0l8.6-8.6A2 2 0 0 1 41 20" stroke="#FFFFFF" stroke-width="4.5" stroke-linecap="round" stroke-linejoin="round"></path>
  <path d="M50 20v24a2 2 0 0 1-3.4 1.41L38 36.8a2 2 0 0 0-2.83 0L26.6 45.4A2 2 0 0 1 23.18 44" stroke="#FF7A00" stroke-width="4.5" stroke-linecap="round" stroke-linejoin="round"></path>

  
  <rect x="14" y="50" width="36" height="2.5" rx="1.25" fill="#FFFFFF" opacity="0.9"></rect>
</svg>