<svg width="808" height="804" viewBox="0 0 808 804" fill="none" xmlns="http://www.w3.org/2000/svg">
<path d="M805.38 2.24995L802.243 740.943C802.085 753.017 798.489 764.778 791.903 774.761C785.317 784.744 776.032 792.509 765.203 797.088C754.373 801.668 742.479 802.861 731 800.518C719.52 798.175 708.963 792.399 700.643 783.911L445.245 517.815C439.729 512.068 433.169 507.5 425.94 504.371C418.711 501.242 410.955 499.615 403.115 499.582C395.275 499.548 387.506 501.11 380.25 504.177C372.995 507.244 366.396 511.757 360.832 517.457L104.08 781.069C95.7345 789.678 85.1035 795.541 73.531 797.916C61.9585 800.292 49.9642 799.073 39.0647 794.414C28.1652 789.756 18.8501 781.866 12.2972 771.744C5.74428 761.621 2.24789 749.72 2.25012 737.546" stroke="#FF7A00" stroke-width="12" stroke-linecap="round" stroke-linejoin="round"/>
</svg>
