<svg width="805" height="805" viewBox="0 0 805 805" fill="none" xmlns="http://www.w3.org/2000/svg">
<path d="M2.25 802.25V68.5929C2.41289 56.6266 5.97531 44.9727 12.4956 35.0761C19.016 25.1795 28.2075 17.4752 38.9306 12.9186C49.6537 8.36199 61.4369 7.15335 72.8194 9.44248C84.2019 11.7316 94.6831 17.4178 102.964 25.7963L357.71 288.69C363.212 294.374 369.746 298.884 376.938 301.961C384.13 305.037 391.839 306.621 399.625 306.621C407.41 306.621 415.119 305.037 422.311 301.961C429.503 298.884 436.037 294.374 441.539 288.69L696.286 25.7963C704.138 15.4026 715.035 7.90585 727.352 4.42322C739.668 0.940583 752.746 1.65855 764.636 6.47016C776.525 11.2818 786.589 19.9294 793.329 31.1241C800.068 42.3189 803.122 55.4614 802.035 68.5929" stroke="white" stroke-width="12" stroke-linecap="round" stroke-linejoin="round"/>
</svg>
